PathFileType	4	(X/Y/Z)	C:\Users\WrightLab\Desktop\Jo\P5V16.trc
DataRate	CameraRate	NumFrames	NumMarkers	Units	OrigDataRate	OrigDataStartFrame	OrigNumFrames
100.00	100.00	       10	19	mm	100.00	1	       767
Frame#	Time	Headset_Front			Headset_Back			Headset_Left			Headset_Right			Left_Shoulder			Right_Shoulder			Sternum			C7			Left Elbow			Right Elbow			Left Wrist			Right Wrist			Left ASIS			Right ASIS			S2			Left Knee			Right Knee			Left Ankle			Right Ankle			
		X1	Y1	Z1	X2	Y2	Z2	X3	Y3	Z3	X4	Y4	Z4	X5	Y5	Z5	X6	Y6	Z6	X7	Y7	Z7	X8	Y8	Z8	X9	Y9	Z9	X10	Y10	Z10	X11	Y11	Z11	X12	Y12	Z12	X13	Y13	Z13	X14	Y14	Z14	X15	Y15	Z15	X16	Y16	Z16	X17	Y17	Z17	X18	Y18	Z18	X19	Y19	Z19	

1	0.000	-250.59641	1604.12964	-986.91449																-140.77800	1317.80518	-1068.92114							-445.80667	1183.52136	-1183.15088	127.89441	1060.72693	-999.91742	-391.44034	1060.39258	-980.03912	-8.00499	920.63586	-1063.95032	-278.11151	944.26471	-1053.79211				43.57933	483.90338	-1124.90454	-321.03851	477.56882	-1100.10559				-279.09558	77.49090	-1207.79382	
2	0.010	-250.38789	1604.10132	-986.88049																-139.85507	1317.55420	-1069.14258							-445.68677	1183.60046	-1183.04578	127.78140	1060.70813	-1000.06104	-391.25464	1060.20984	-980.01440	-7.89394	920.55536	-1063.95740	-277.92508	944.10803	-1053.86462				43.65808	484.15353	-1124.93982	-320.92719	477.70035	-1099.83337				-279.09070	77.51335	-1207.79749	
3	0.020	-250.18498	1604.24377	-987.18311																-139.85507	1317.55420	-1069.14258							-445.67392	1183.50903	-1183.39990	127.79607	1060.71130	-1000.05768	-391.51498	1060.43591	-980.05084	-7.86164	920.53998	-1063.94202	-277.76462	944.22003	-1054.14429				43.60340	483.92239	-1124.89941	-321.03439	477.59583	-1100.10693				-279.06799	77.51107	-1207.79944	
4	0.030	-249.99716	1604.23645	-987.14862																-139.16801	1317.46362	-1069.13562							-445.60703	1183.49683	-1183.42102	127.96633	1060.82471	-1000.55981	-391.24408	1060.21973	-980.01038	-7.90589	920.42310	-1064.10962	-277.43655	944.22400	-1054.10059				43.81840	483.86429	-1124.78381	-320.03867	476.52081	-1100.25623				-279.06616	77.48787	-1207.79614	
5	0.040	-249.79132	1604.46826	-987.58276																-139.16801	1317.46362	-1069.13562							-445.51266	1183.46692	-1183.43616	128.13443	1060.72449	-1000.53235	-391.48065	1060.37659	-980.27136	-7.43494	920.50629	-1064.08984	-277.17047	944.00616	-1054.30859				43.84915	483.93515	-1124.95239	-321.02646	477.56934	-1100.10010				-279.01398	77.45470	-1207.79651	
6	0.050	-249.58742	1604.56165	-987.81226																-139.23477	1317.38879	-1069.50867							-445.41373	1183.44592	-1183.42871	128.20901	1060.62512	-1000.59332	-391.40680	1060.12256	-980.32080	-7.42138	920.50409	-1064.08435	-276.61523	943.81592	-1054.62170				43.61034	483.75793	-1125.02100	-320.88388	477.70041	-1099.81348				-279.05695	77.49000	-1207.79736	
7	0.060	-249.37082	1604.51135	-987.78149																-139.27075	1317.47058	-1070.55884							-445.30377	1183.54761	-1183.64380	128.24257	1060.62122	-1000.58386	-391.44009	1060.10449	-980.46124	-7.40400	920.52606	-1064.08289	-276.68320	943.72766	-1054.87292				43.58046	483.75534	-1125.03369	-320.65753	477.96213	-1099.71753				-278.99796	77.44047	-1207.79590	
8	0.070	-249.15977	1604.53430	-988.05524																-139.27075	1317.47058	-1070.55884							-445.14899	1183.66357	-1184.16003	128.66124	1060.57715	-1000.56329	-391.32053	1060.67932	-980.55011	-7.40686	920.51227	-1064.08081	-276.20319	943.36395	-1054.66504				43.61685	483.95593	-1125.07324	-320.63947	477.97888	-1099.71130				-278.99072	77.41197	-1207.79248	
9	0.080	-248.92014	1604.63342	-988.48254																-139.34261	1317.37915	-1070.88586							-445.04620	1183.62354	-1184.16748	129.28880	1060.12634	-1001.08221	-391.30298	1060.67932	-980.54211	-7.22756	920.44458	-1064.00391	-275.77222	943.56683	-1055.52478				43.60671	483.96283	-1125.07983	-320.47351	478.13644	-1099.49023				-278.96240	77.42955	-1207.79785	
10	0.090	-248.76628	1604.68030	-989.07489																-138.67192	1317.81482	-1071.22961							-444.91547	1183.71521	-1184.31909	129.46332	1060.22729	-1001.21710	-390.81342	1060.01013	-980.71967	-7.22798	920.44287	-1064.00378	-276.19656	943.41040	-1054.66907				43.51601	483.72794	-1125.05469	-320.23404	478.24374	-1099.50549				-278.95694	77.39582	-1207.79346	
